<svg width="17" height="16" viewBox="0 0 17 16" fill="none" xmlns="http://www.w3.org/2000/svg">
<g id="book-open-01">
<path id="Icon" d="M8.42448 14L8.35778 13.8999C7.89468 13.2053 7.66313 12.858 7.35721 12.6065C7.08638 12.3839 6.77432 12.2169 6.43888 12.1151C6.05998 12 5.64255 12 4.80769 12H3.89115C3.14441 12 2.77104 12 2.48583 11.8547C2.23494 11.7268 2.03097 11.5229 1.90314 11.272C1.75781 10.9868 1.75781 10.6134 1.75781 9.86667V4.13333C1.75781 3.3866 1.75781 3.01323 1.90314 2.72801C2.03097 2.47713 2.23494 2.27316 2.48583 2.14532C2.77104 2 3.14441 2 3.89115 2H4.15781C5.65129 2 6.39802 2 6.96845 2.29065C7.47022 2.54631 7.87817 2.95426 8.13383 3.45603C8.42448 4.02646 8.42448 4.77319 8.42448 6.26667M8.42448 14V6.26667M8.42448 14L8.49118 13.8999C8.95428 13.2053 9.18582 12.858 9.49174 12.6065C9.76257 12.3839 10.0746 12.2169 10.4101 12.1151C10.789 12 11.2064 12 12.0413 12H12.9578C13.7045 12 14.0779 12 14.3631 11.8547C14.614 11.7268 14.818 11.5229 14.9458 11.272C15.0911 10.9868 15.0911 10.6134 15.0911 9.86667V4.13333C15.0911 3.3866 15.0911 3.01323 14.9458 2.72801C14.818 2.47713 14.614 2.27316 14.3631 2.14532C14.0779 2 13.7045 2 12.9578 2H12.6911C11.1977 2 10.4509 2 9.8805 2.29065C9.37874 2.54631 8.97079 2.95426 8.71513 3.45603C8.42448 4.02646 8.42448 4.77319 8.42448 6.26667" stroke="#010513" stroke-width="1.5" stroke-linecap="round" stroke-linejoin="round"/>
</g>
</svg>
