<svg width="21" height="20" viewBox="0 0 21 20" fill="none" xmlns="http://www.w3.org/2000/svg">
<g id="dots-horizontal">
<g id="Icon">
<path d="M11.2565 9.99984C11.2565 9.5396 10.8834 9.1665 10.4232 9.1665C9.96294 9.1665 9.58984 9.5396 9.58984 9.99984C9.58984 10.4601 9.96294 10.8332 10.4232 10.8332C10.8834 10.8332 11.2565 10.4601 11.2565 9.99984Z" fill="#F5F5F5"/>
<path d="M11.2565 4.1665C11.2565 3.70627 10.8834 3.33317 10.4232 3.33317C9.96294 3.33317 9.58984 3.70627 9.58984 4.1665C9.58984 4.62674 9.96294 4.99984 10.4232 4.99984C10.8834 4.99984 11.2565 4.62674 11.2565 4.1665Z" fill="#F5F5F5"/>
<path d="M11.2565 15.8332C11.2565 15.3729 10.8834 14.9998 10.4232 14.9998C9.96294 14.9998 9.58984 15.3729 9.58984 15.8332C9.58984 16.2934 9.96294 16.6665 10.4232 16.6665C10.8834 16.6665 11.2565 16.2934 11.2565 15.8332Z" fill="#F5F5F5"/>
</g>
</g>
</svg>
