<svg width="17" height="16" viewBox="0 0 17 16" fill="none" xmlns="http://www.w3.org/2000/svg">
<g id="annotation-dots">
<path id="Icon" d="M5.42383 7H5.4305M8.42383 7H8.4305M11.4238 7H11.4305M7.02383 12.8L7.99716 14.0978C8.14191 14.2908 8.21428 14.3873 8.303 14.4218C8.38072 14.452 8.46694 14.452 8.54465 14.4218C8.63338 14.3873 8.70575 14.2908 8.8505 14.0978L9.82383 12.8C10.0193 12.5394 10.117 12.4091 10.2362 12.3097C10.3951 12.177 10.5827 12.0832 10.7842 12.0357C10.9352 12 11.0981 12 11.4238 12C12.3557 12 12.8217 12 13.1892 11.8478C13.6793 11.6448 14.0686 11.2554 14.2716 10.7654C14.4238 10.3978 14.4238 9.93188 14.4238 9V5.2C14.4238 4.07989 14.4238 3.51984 14.2058 3.09202C14.0141 2.71569 13.7081 2.40973 13.3318 2.21799C12.904 2 12.3439 2 11.2238 2H5.62383C4.50372 2 3.94367 2 3.51585 2.21799C3.13952 2.40973 2.83356 2.71569 2.64182 3.09202C2.42383 3.51984 2.42383 4.07989 2.42383 5.2V9C2.42383 9.93188 2.42383 10.3978 2.57607 10.7654C2.77906 11.2554 3.16841 11.6448 3.65846 11.8478C4.026 12 4.49195 12 5.42383 12C5.74955 12 5.91241 12 6.0635 12.0357C6.26496 12.0832 6.45257 12.177 6.61149 12.3097C6.73068 12.4091 6.8284 12.5394 7.02383 12.8ZM5.75716 7C5.75716 7.18409 5.60792 7.33333 5.42383 7.33333C5.23973 7.33333 5.09049 7.18409 5.09049 7C5.09049 6.8159 5.23973 6.66667 5.42383 6.66667C5.60792 6.66667 5.75716 6.8159 5.75716 7ZM8.75716 7C8.75716 7.18409 8.60792 7.33333 8.42383 7.33333C8.23973 7.33333 8.09049 7.18409 8.09049 7C8.09049 6.8159 8.23973 6.66667 8.42383 6.66667C8.60792 6.66667 8.75716 6.8159 8.75716 7ZM11.7572 7C11.7572 7.18409 11.6079 7.33333 11.4238 7.33333C11.2397 7.33333 11.0905 7.18409 11.0905 7C11.0905 6.8159 11.2397 6.66667 11.4238 6.66667C11.6079 6.66667 11.7572 6.8159 11.7572 7Z" stroke="#7E7E7E" stroke-width="1.5" stroke-linecap="round" stroke-linejoin="round"/>
</g>
</svg>
