<svg width="55" height="54" viewBox="0 0 55 54" fill="none" xmlns="http://www.w3.org/2000/svg">
<g id="Group 2072748766">
<g id="quote-up" opacity="0.2">
<path id="Vector" d="M36.2213 27.8327L46.7738 27.8327C46.5938 38.3402 44.5238 40.0727 38.0663 43.8977C37.3238 44.3477 37.0763 45.2927 37.5263 46.0577C37.9538 46.8002 38.9213 47.0477 39.6638 46.5977C47.2688 42.0977 49.9238 39.3527 49.9238 26.2802L49.9238 14.1527C49.9238 10.3052 46.7963 7.20019 42.9713 7.20019L36.2213 7.20019C32.2613 7.20019 29.2688 10.1927 29.2688 14.1527L29.2688 20.9027C29.2688 24.8402 32.2613 27.8327 36.2213 27.8327Z" fill="#4A4A4A"/>
<path id="Vector_2" d="M11.8766 27.8322L22.4291 27.8322C22.2491 38.3397 20.1791 40.0722 13.7216 43.8972C12.9791 44.3472 12.7316 45.2922 13.1816 46.0572C13.6316 46.7997 14.5766 47.0472 15.3416 46.5972C22.9466 42.0972 25.6016 39.3522 25.6016 26.2572L25.6016 14.1297C25.6016 10.2822 22.4741 7.1772 18.6491 7.1772L11.8991 7.1772C7.93906 7.1772 4.94656 10.1697 4.94656 14.1297L4.94656 20.8797C4.92406 24.8397 7.91656 27.8322 11.8766 27.8322Z" fill="#4A4A4A"/>
</g>
</g>
</svg>
