<svg width="23" height="22" viewBox="0 0 23 22" fill="none" xmlns="http://www.w3.org/2000/svg">
<g id="Search">
<g id="Vector">
<mask id="path-1-inside-1_315_20" fill="white">
<path d="M16.4363 15.4625C17.7665 13.9889 18.4683 12.0539 18.3922 10.0703C18.3162 8.08658 17.4681 6.2111 16.029 4.84372C14.5899 3.47634 12.6735 2.72526 10.6886 2.75062C8.70358 2.77599 6.80704 3.57579 5.40333 4.9795C3.99962 6.38321 3.19982 8.27975 3.17445 10.2647C3.14908 12.2497 3.90017 14.1661 5.26754 15.6052C6.63492 17.0443 8.51041 17.8923 10.4941 17.9684C12.4778 18.0445 14.4127 17.3426 15.8863 16.0125L19.6538 19.78L20.2038 19.23L16.4363 15.4625ZM10.7768 17.2115C9.43228 17.2115 8.11796 16.8128 7.00003 16.0658C5.88211 15.3188 5.01079 14.2571 4.49626 13.0149C3.98174 11.7728 3.84712 10.4059 4.10942 9.08724C4.37172 7.76856 5.01917 6.55727 5.96989 5.60655C6.9206 4.65584 8.13189 4.00839 9.45057 3.74609C10.7693 3.48379 12.1361 3.61841 13.3783 4.13293C14.6205 4.64746 15.6822 5.51878 16.4291 6.6367C17.1761 7.75463 17.5748 9.06895 17.5748 10.4135C17.5719 12.2155 16.8547 13.9429 15.5805 15.2172C14.3063 16.4914 12.5788 17.2086 10.7768 17.2115V17.2115Z"/>
</mask>
<path d="M16.4363 15.4625L14.9517 14.1224L13.6784 15.533L15.0221 16.8767L16.4363 15.4625ZM15.8863 16.0125L17.3005 14.5983L15.9568 13.2545L14.5462 14.5278L15.8863 16.0125ZM19.6538 19.78L18.2396 21.1942L19.6538 22.6084L21.068 21.1942L19.6538 19.78ZM20.2038 19.23L21.618 20.6442L23.0322 19.23L21.618 17.8158L20.2038 19.23ZM17.5748 10.4135L19.5748 10.4167V10.4135H17.5748ZM17.9209 16.8026C19.6006 14.9418 20.4868 12.4985 20.3908 9.99361L16.3937 10.1469C16.4498 11.6094 15.9323 13.0359 14.9517 14.1224L17.9209 16.8026ZM20.3908 9.99361C20.2947 7.48873 19.2239 5.12048 17.4066 3.39383L14.6514 6.29361C15.7124 7.30172 16.3376 8.68443 16.3937 10.1469L20.3908 9.99361ZM17.4066 3.39383C15.5894 1.66718 13.1695 0.718754 10.663 0.750785L10.7141 4.75046C12.1776 4.73176 13.5904 5.2855 14.6514 6.29361L17.4066 3.39383ZM10.663 0.750785C8.15649 0.782817 5.76164 1.79277 3.98912 3.56529L6.81755 6.39372C7.85244 5.35882 9.25068 4.76916 10.7141 4.75046L10.663 0.750785ZM3.98912 3.56529C2.2166 5.33781 1.20664 7.73266 1.17461 10.2392L5.17429 10.2903C5.19299 8.82685 5.78265 7.42861 6.81755 6.39372L3.98912 3.56529ZM1.17461 10.2392C1.14258 12.7457 2.09101 15.1656 3.81765 16.9828L6.71744 14.2276C5.70933 13.1666 5.15559 11.7537 5.17429 10.2903L1.17461 10.2392ZM3.81765 16.9828C5.5443 18.8 7.91256 19.8709 10.4174 19.9669L10.5707 15.9699C9.10826 15.9138 7.72555 15.2886 6.71744 14.2276L3.81765 16.9828ZM10.4174 19.9669C12.9223 20.063 15.3656 19.1767 17.2264 17.4971L14.5462 14.5278C13.4598 15.5085 12.0332 16.026 10.5707 15.9699L10.4174 19.9669ZM14.4721 17.4267L18.2396 21.1942L21.068 18.3658L17.3005 14.5983L14.4721 17.4267ZM21.068 21.1942L21.618 20.6442L18.7896 17.8158L18.2396 18.3658L21.068 21.1942ZM21.618 17.8158L17.8505 14.0483L15.0221 16.8767L18.7896 20.6442L21.618 17.8158ZM10.7768 15.2115C9.82785 15.2115 8.9002 14.9301 8.11117 14.4029L5.88889 17.7287C7.33571 18.6955 9.03672 19.2115 10.7768 19.2115V15.2115ZM8.11117 14.4029C7.32214 13.8756 6.70717 13.1263 6.34402 12.2496L2.64851 13.7803C3.31441 15.3879 4.44207 16.762 5.88889 17.7287L8.11117 14.4029ZM6.34402 12.2496C5.98087 11.3729 5.88586 10.4081 6.07099 9.47742L2.14785 8.69706C1.80838 10.4037 1.9826 12.1727 2.64851 13.7803L6.34402 12.2496ZM6.07099 9.47742C6.25612 8.5467 6.71309 7.69178 7.3841 7.02077L4.55567 4.19234C3.32525 5.42276 2.48732 6.99042 2.14785 8.69706L6.07099 9.47742ZM7.3841 7.02077C8.05511 6.34976 8.91003 5.89279 9.84075 5.70766L9.06039 1.78452C7.35375 2.12399 5.7861 2.96192 4.55567 4.19234L7.3841 7.02077ZM9.84075 5.70766C10.7715 5.52253 11.7362 5.61754 12.6129 5.98069L14.1436 2.28518C12.536 1.61928 10.767 1.44505 9.06039 1.78452L9.84075 5.70766ZM12.6129 5.98069C13.4896 6.34384 14.239 6.95881 14.7662 7.74784L18.0921 5.52556C17.1253 4.07874 15.7513 2.95108 14.1436 2.28518L12.6129 5.98069ZM14.7662 7.74784C15.2934 8.53687 15.5748 9.46451 15.5748 10.4135H19.5748C19.5748 8.67339 19.0588 6.97238 18.0921 5.52556L14.7662 7.74784ZM15.5748 10.4102C15.5727 11.683 15.0662 12.903 14.1663 13.803L16.9947 16.6314C18.6432 14.9829 19.571 12.7481 19.5748 10.4167L15.5748 10.4102ZM14.1663 13.803C13.2663 14.7029 12.0463 15.2094 10.7736 15.2115L10.78 19.2115C13.1114 19.2077 15.3462 18.2799 16.9947 16.6314L14.1663 13.803Z" fill="#7E7E7E" mask="url(#path-1-inside-1_315_20)"/>
</g>
</g>
</svg>
