<svg width="19" height="18" viewBox="0 0 19 18" fill="none" xmlns="http://www.w3.org/2000/svg">
<g id="wallet-03">
<g id="Icon">
<path d="M13.1738 10.5C13.1738 10.7071 13.0059 10.875 12.7988 10.875C12.5917 10.875 12.4238 10.7071 12.4238 10.5C12.4238 10.2929 12.5917 10.125 12.7988 10.125C13.0059 10.125 13.1738 10.2929 13.1738 10.5Z" fill="#F79E1C"/>
<path d="M16.1738 14.25V6.75C16.1738 5.92157 15.5023 5.25 14.6738 5.25L4.17383 5.25C3.3454 5.25 2.67383 4.57843 2.67383 3.75V14.25C2.67383 15.0784 3.3454 15.75 4.17383 15.75H14.6738C15.5023 15.75 16.1738 15.0784 16.1738 14.25Z" fill="#F79E1C"/>
<path d="M12.7988 10.5H12.8063M2.67383 3.75V14.25C2.67383 15.0784 3.3454 15.75 4.17383 15.75H14.6738C15.5023 15.75 16.1738 15.0784 16.1738 14.25V6.75C16.1738 5.92157 15.5023 5.25 14.6738 5.25L4.17383 5.25C3.3454 5.25 2.67383 4.57843 2.67383 3.75ZM2.67383 3.75C2.67383 2.92157 3.3454 2.25 4.17383 2.25H13.1738M13.1738 10.5C13.1738 10.7071 13.0059 10.875 12.7988 10.875C12.5917 10.875 12.4238 10.7071 12.4238 10.5C12.4238 10.2929 12.5917 10.125 12.7988 10.125C13.0059 10.125 13.1738 10.2929 13.1738 10.5Z" stroke="#F79E1C" stroke-linecap="round" stroke-linejoin="round"/>
</g>
<path id="Icon_2" d="M12.7988 10.5H12.8063M13.1738 10.5C13.1738 10.7071 13.0059 10.875 12.7988 10.875C12.5917 10.875 12.4238 10.7071 12.4238 10.5C12.4238 10.2929 12.5917 10.125 12.7988 10.125C13.0059 10.125 13.1738 10.2929 13.1738 10.5Z" stroke="#272727" stroke-linecap="round" stroke-linejoin="round"/>
</g>
</svg>
